<svg width="24" height="24" viewBox="0 0 24 24" fill="none" xmlns="http://www.w3.org/2000/svg">
<mask id="mask0_11_2144" style="mask-type:alpha" maskUnits="userSpaceOnUse" x="0" y="0" width="24" height="24">
<rect width="24" height="24" fill="#D9D9D9"/>
</mask>
<g mask="url(#mask0_11_2144)">
<path d="M15 20.4615L9 18.3615L4.69625 20.0267C4.40142 20.1409 4.12833 20.1082 3.877 19.9287C3.62567 19.7492 3.5 19.5037 3.5 19.1922V6.07695C3.5 5.87945 3.55292 5.7022 3.65875 5.5452C3.76442 5.3882 3.91283 5.27445 4.104 5.20395L9 3.53845L15 5.63845L19.3038 3.9732C19.5986 3.85904 19.8717 3.88687 20.123 4.0567C20.3743 4.22654 20.5 4.46404 20.5 4.7692V17.9615C20.5 18.1653 20.4423 18.3441 20.327 18.498C20.2115 18.6518 20.0551 18.764 19.8577 18.8345L15 20.4615ZM14.25 18.627V6.92695L9.75 5.3537V17.0537L14.25 18.627ZM15.75 18.627L19 17.55V5.69995L15.75 6.92695V18.627ZM5 18.3L8.25 17.0537V5.3537L5 6.44995V18.3Z" fill="#F4E1D3"/>
</g>
</svg>
