<svg width="24" height="24" viewBox="0 0 24 24" fill="none" xmlns="http://www.w3.org/2000/svg">
<mask id="mask0_11_2143" style="mask-type:alpha" maskUnits="userSpaceOnUse" x="0" y="0" width="24" height="24">
<rect width="24" height="24" fill="#D9D9D9"/>
</mask>
<g mask="url(#mask0_11_2143)">
<path d="M12.0452 10.0952C12.2675 9.87273 12.3787 9.59931 12.3787 9.27497C12.3787 8.95064 12.2675 8.67722 12.0452 8.45472C11.8227 8.23239 11.5493 8.12122 11.225 8.12122C10.9006 8.12122 10.6272 8.23239 10.4047 8.45472C10.1824 8.67722 10.0712 8.95064 10.0712 9.27497C10.0712 9.59931 10.1824 9.87273 10.4047 10.0952C10.6272 10.3176 10.9006 10.4287 11.225 10.4287C11.5493 10.4287 11.8227 10.3176 12.0452 10.0952ZM20.5212 21.625C19.9302 21.625 19.0606 21.3236 17.9125 20.721C16.7645 20.1185 15.5346 19.3332 14.223 18.3652C13.868 18.4936 13.5023 18.5897 13.126 18.6537C12.7496 18.7179 12.366 18.75 11.975 18.75C10.0955 18.75 8.50479 18.099 7.20295 16.797C5.90095 15.4951 5.24995 13.9045 5.24995 12.025C5.24995 11.634 5.28454 11.2461 5.3537 10.8615C5.42304 10.4768 5.52179 10.107 5.64996 9.75198C4.69862 8.44681 3.92395 7.22756 3.32595 6.09422C2.72795 4.96089 2.42896 4.10189 2.42896 3.51722C2.42896 3.18272 2.52187 2.91672 2.7077 2.71922C2.89354 2.52172 3.1422 2.42297 3.4537 2.42297C3.8102 2.42297 4.35995 2.59547 5.10295 2.94047C5.84579 3.28531 6.77746 3.79364 7.89796 4.46547C7.63779 4.60381 7.39454 4.74739 7.16821 4.89622C6.94187 5.04489 6.72237 5.20706 6.50971 5.38272C6.09687 5.14172 5.69395 4.92406 5.30095 4.72972C4.90795 4.53556 4.50637 4.34422 4.09621 4.15572C4.42821 4.86606 4.78746 5.55647 5.17396 6.22697C5.56046 6.89747 5.97429 7.55964 6.41545 8.21347C7.02312 7.31347 7.80896 6.59872 8.77296 6.06922C9.73712 5.53972 10.8045 5.27497 11.975 5.27497C13.8545 5.27497 15.4493 5.93014 16.7595 7.24047C18.0698 8.55064 18.725 10.1455 18.725 12.025C18.725 13.1955 18.4576 14.2644 17.923 15.2317C17.3885 16.1991 16.6712 16.9866 15.7712 17.5942C16.4314 18.0417 17.1025 18.4629 17.7845 18.8577C18.4666 19.2526 19.166 19.6141 19.8827 19.9422C19.7045 19.5422 19.5157 19.1458 19.3162 18.753C19.1169 18.36 18.8967 17.9571 18.6557 17.5442C18.8415 17.3314 19.0105 17.1067 19.1625 16.8702C19.3143 16.6337 19.4544 16.3905 19.5827 16.1405C20.2789 17.3058 20.7916 18.2461 21.121 18.9615C21.4505 19.677 21.6152 20.2129 21.6152 20.5692C21.6152 20.9116 21.514 21.1731 21.3115 21.3537C21.109 21.5346 20.8455 21.625 20.5212 21.625ZM14.3412 14.6412C14.5072 14.4752 14.5902 14.2698 14.5902 14.025C14.5902 13.7801 14.5072 13.5747 14.3412 13.4087C14.1752 13.2427 13.9698 13.1597 13.725 13.1597C13.4801 13.1597 13.2747 13.2427 13.1087 13.4087C12.9427 13.5747 12.8597 13.7801 12.8597 14.025C12.8597 14.2698 12.9427 14.4752 13.1087 14.6412C13.2747 14.8072 13.4801 14.8902 13.725 14.8902C13.9698 14.8902 14.1752 14.8072 14.3412 14.6412ZM15.4932 11.274C15.6285 11.1388 15.6962 10.9693 15.6962 10.7655C15.6962 10.5615 15.6285 10.3919 15.4932 10.2567C15.358 10.1214 15.1885 10.0537 14.9845 10.0537C14.7806 10.0537 14.6111 10.1214 14.476 10.2567C14.3406 10.3919 14.273 10.5615 14.273 10.7655C14.273 10.9693 14.3406 11.1388 14.476 11.274C14.6111 11.4093 14.7806 11.477 14.9845 11.477C15.1885 11.477 15.358 11.4093 15.4932 11.274Z" fill="#F4E1D3"/>
</g>
</svg>
